<?xml version="1.0" encoding="utf-8"?>
<!-- Generator: Adobe Illustrator 27.6.1, SVG Export Plug-In . SVG Version: 6.00 Build 0)  -->
<svg version="1.1" id="Layer_1" xmlns="http://www.w3.org/2000/svg" xmlns:xlink="http://www.w3.org/1999/xlink" x="0px" y="0px"
	 viewBox="0 0 300 300" style="enable-background:new 0 0 300 300;" xml:space="preserve">
<style type="text/css">
	.st0{fill:#FFFFFF;}
</style>
<g id="_x23_ffffffff">
	<path class="st0" d="M136.06,0.33c1.48-0.53,3.1-0.27,4.64-0.27c4.65,0.07,9.21,1.18,13.63,2.56c5.16,1.85,10.03,4.69,13.84,8.68
		c3.8,4.05,7.77,8.26,12.95,10.52c-1.92-3.46-4.82-6.29-7.98-8.62c-1.11-0.76-1.02-2.79,0.32-3.22c1.08-0.44,2.1,0.36,3.02,0.83
		c4.82,2.51,9.1,6.11,12.32,10.5c0.07-1.78,0.35-3.54,0.78-5.27c0.31-1.16,1.89-1.75,2.83-0.94c0.7,0.48,0.86,1.36,0.79,2.16
		c-0.21,3.99,1.34,7.75,2.53,11.47c1.19,3.1,3.94,5.22,6.67,6.92c2.22,1.2,4.48,2.38,6.9,3.13c0.19-0.93,0.84-1.85,1.9-1.78
		c8.9,1.55,17.6,4.54,25.41,9.1c4.37,2.83,6.91,7.66,8.39,12.52c1.53,5.65,2.15,11.53,1.99,17.37c12.01,10.65,21.15,24.37,27,39.28
		c3.53,8.89,5.76,18.29,6.75,27.8c0.35,3.96,0.36,7.95,0.21,11.92c-0.62,7.22-3.06,14.38-7.59,20.09c-2.97,3.79-6.78,6.92-11.07,9.1
		c-0.91,0.43-1.84,1.23-2.9,0.91c-1.43-0.31-1.72-2.52-0.56-3.31c1.3-0.82,2.47-1.83,3.7-2.76c-2.6,1.33-5.42,2.17-8.2,3.04
		c-1.06,0.35-2.02-0.35-2.64-1.14c-2.51,7.98-5.18,15.91-8.05,23.77c-3.55,10.43-9.79,19.71-16.81,28.1
		c-2.66,7.57-4.65,15.37-7.91,22.73c-4.29,9.71-9.53,19.19-16.88,26.95c-2.23,2.26-4.71,4.28-7.45,5.89
		c-6.01,4.04-11.87,8.67-18.96,10.64c-3.86,1.24-7.96,1.03-11.95,0.87c-5.89-0.51-11.63-2.37-17.58-2.33
		c-2.51-0.34-5.02,0.15-7.54,0.05c-5.25,0.18-10.39-1.21-15.32-2.89c-4.73-1.9-9.35-4.25-13.15-7.69c-1.44-1.44-2.86-2.96-4.65-3.96
		c-1.51-0.81-3.05-1.55-4.67-2.08c-10.12-3.35-19.84-8.33-27.82-15.47c-4.52-4.04-8.36-8.93-10.65-14.56
		c-2.95-7.24-4.21-15.01-5.47-22.69c-4.93-1.62-9.43-4.74-12.36-9.06c-1.44-1.9-2.47-4.06-3.46-6.22
		c-1.47-3.46-1.83-7.25-2.24-10.95c-0.27-2.44-0.89-4.82-1.51-7.19c-0.55-2.04-1.65-3.87-2.17-5.92c-1.09-3.43-1.85-6.98-2.1-10.57
		c-0.08-3.79-0.16-7.6,0.46-11.36c-6.92-7.91-10.69-17.95-13.9-27.81c-1.26-3.48-1.26-7.27-0.84-10.91
		c0.86-4.38,2.74-8.57,5.53-12.07c-1.1-6.92-0.7-14.16,1.61-20.8c1.82-3.98,4.8-7.29,7.74-10.48c4.91-5.06,10.22-9.73,15.75-14.12
		c-1.31-0.04-2.64,0.29-3.93,0.08c-1.51-0.33-1.65-2.59-0.4-3.33c1.01-0.49,2.16-0.62,3.17-1.13c4.53-2.14,8.83-4.75,12.98-7.56
		c14.33-10.23,29.49-19.2,44.73-27.99c7.42-4.19,14.62-8.91,22.62-11.92c-0.15-0.45-0.32-0.91-0.4-1.38
		c0.08-1.53,1.7-2.18,2.72-3.05c5.33-4.16,11.8-7.01,18.61-7.39c-4.18-1.76-8.63-2.9-13.11-3.53
		C134.86,3.26,134.71,0.91,136.06,0.33 M136.94,1.89c2.33,0.3,4.64,0.76,6.91,1.38c5.28,1.49,10.64,3.56,14.59,7.51
		c-3.54-1.46-7.44-2.08-11.24-1.54c-6.32,0.76-12.03,4.01-16.88,7.99c8.1-4.55,18.33-4.28,26.57-0.23c-3.64-1-7.46-1.09-11.19-0.73
		c-6.66,0.69-13.11,2.77-19.22,5.47c-5.94,2.57-11.45,5.98-17.05,9.18c-12.3,7.15-24.64,14.23-36.5,22.09
		c-6.51,4.28-12.71,9.05-19.55,12.81c-2.36,1.28-4.75,2.56-7.34,3.31c2.99-0.17,5.97-0.33,8.97-0.45c-7.78,6-15.39,12.29-21.98,19.6
		c-2.36,2.76-4.81,5.64-5.96,9.14c-1.73,6.26-1.99,12.92-0.85,19.31c-3.91,4.57-6.29,10.61-5.9,16.67c0.14,3.34,1.42,6.48,2.46,9.62
		c2.94,8.42,6.65,16.8,12.69,23.49c-1.1,6.51-0.96,13.28,0.72,19.68c0.8,3.19,2.35,6.13,3.18,9.32c1,3.31,1.29,6.76,1.67,10.18
		c0.5,4.47,2.34,8.7,4.88,12.39c2.99,4.28,7.52,7.51,12.64,8.67c1.05,7.74,2.38,15.51,5.2,22.83c2.3,6.11,6.57,11.3,11.5,15.5
		c7.01,5.95,15.25,10.33,23.9,13.38c3.22,1.17,6.59,2.23,9.28,4.44c1.35,1.04,2.4,2.39,3.72,3.47c2.36,1.95,5,3.52,7.74,4.86
		c5.81,2.81,12.2,4.52,18.68,4.55c2.52-0.09,5.05-0.32,7.57-0.14c7.26,0.19,14.27,2.6,21.55,2.54c4.2,0.09,8.4-0.88,12.18-2.69
		c5.28-2.5,9.88-6.15,14.76-9.3c5.25-3.27,9.21-8.18,12.73-13.18c4.47-6.54,8.1-13.64,11.05-20.99c2.73-6.61,4.39-13.61,6.93-20.28
		c7.44-8.74,13.79-18.6,17.3-29.59c2.87-8.02,5.57-16.11,8.14-24.24c6.13-2.03,11.82-5.55,16.13-10.38
		c1.95-2.12,3.36-4.64,4.75-7.14c-0.51,3.65-2.24,7.03-4.51,9.89c-3.54,4.46-8.39,7.66-13.48,10.09c7.14-2.08,14.5-5.24,19.07-11.39
		c-3.08,5.6-7.32,10.64-12.64,14.25c7.03-3.13,12.78-8.95,15.91-15.97c2.83-6.17,3.55-13.09,3.18-19.81
		c-0.44-9.8-2.51-19.51-5.84-28.73c-5.75-16.01-15.39-30.69-28.17-41.96c0.07-5.48-0.21-11.05-1.59-16.38
		c-1.29-4.92-3.61-9.99-8.07-12.78c-7.47-4.38-15.79-7.17-24.27-8.77c1.66,1.34,3.39,2.59,5.03,3.95c-2.76-0.63-5.49-1.42-8.13-2.43
		c-4.13-1.6-8.26-3.6-11.4-6.8c-1.46-1.46-2.47-3.3-3.07-5.26c-1.33-3.75-2.4-7.65-2.41-11.66c-0.95,4.38-0.7,8.96,0.76,13.2
		c-1.24-2.27-2.46-4.56-4.03-6.64c-3.49-4.84-8.16-8.86-13.6-11.37c4.28,3.18,8.12,7.31,9.85,12.45c-2.22,0.13-4.29-0.82-6.17-1.91
		c-4.49-2.67-8.15-6.46-11.67-10.26C158.68,4.54,147.48,1.58,136.94,1.89z"/>
	<path class="st0" d="M157.65,22.65c5.87,0.18,11.79,1.61,16.86,4.65c3.7,2.24,6.96,5.36,8.93,9.25c-3.06,1.23-6.43,1.17-9.67,1.05
		c-2.62-0.09-5.21-0.51-7.81-0.79c7.15,2.03,14.59,2.99,22.03,2.95c-7.75,1.46-15.76,1.18-23.51-0.19
		c-3.73-0.6-7.33-1.94-11.14-2.11c-9.71-0.59-19.29,2.73-27.49,7.73c5.27-5.45,12.6-8.39,19.94-9.76
		c6.46-1.17,13.12-1.44,19.65-0.73c-0.88-0.64-2-0.41-3-0.64c-5.06-0.95-10.09-2.17-14.93-3.96c-2-0.71-3.88-1.8-6.02-2.02
		c-4.09-0.53-8.18,0.59-11.97,2.03c-5.82,2.28-11.16,5.6-16.19,9.28c4.42-4.73,9.38-9.09,15.19-12.05
		c4.21-2.16,8.89-3.47,13.64-3.54c4.69-0.09,9.34,0.99,13.67,2.75c3.61,1.44,7.3,2.84,11.17,3.36c1.19,0.19,2.41,0.09,3.57-0.26
		C167.01,26.19,162.52,23.64,157.65,22.65z"/>
	<path class="st0" d="M135.36,47.83c4.69-3.13,10.08-5.53,15.79-5.68c9-0.05,17.46,3.41,26.23,4.89c5.93,1.05,12.11,0.37,17.66-1.97
		c-4.52,4.84-11.16,7.17-17.65,7.63c-6.61,0.51-13.22,2.96-18.04,7.61c1.96-3.87,5.06-7.21,9.03-9.05
		c-6.88,0.82-13.25,4.47-17.84,9.61c-4.06,4.64-7.63,9.68-11.34,14.58c-0.96,1.33-2.14,2.52-2.84,4.03
		c-3.02,5.78-7.96,10.35-13.46,13.76c4.91-0.35,9.36-2.86,13.14-5.86c2.66-2.14,5.04-4.6,7.2-7.24c1.85-2.24,3.41-4.71,5.4-6.84
		c7.57-8.34,18.06-13.83,29.06-16.01c-3.84,3.4-8.75,5.2-13.38,7.27c6.23,0.27,12.88,0.03,18.4-3.18
		c4.74-2.96,8.56-7.18,11.71-11.75c2.76,3.94,6,7.55,9.68,10.65c2.95,2.47,6.25,4.59,9.92,5.83c4.74,1.61,8.68,4.92,12,8.59
		c3.87,4.32,7.01,9.24,9.79,14.32c1.86,3.46,3.81,6.98,4.43,10.91c1.21,6.57-0.71,13.39-4.29,18.93c2.6-2.09,4.58-4.87,5.92-7.91
		c1.05,5.12-0.49,10.42-3.08,14.84c-1.15,2.05-2.65,3.87-4.11,5.7c3.47-3.11,6.7-6.53,9.44-10.32c-1.66,6.25-4.81,12.25-9.71,16.57
		c3.2-1.5,6.4-2.99,9.59-4.51c-3.92,3.15-6.34,8.12-6.05,13.18c-9.5-3.8-19.88-4.6-30.01-4.79c-4.84,0.22-9.86-0.03-14.47,1.74
		c-2.87,1.06-5.4,2.97-7.18,5.46c-7.39-3.1-15.69-3.07-23.47-1.75c-1.43-4.2-4.7-7.7-8.83-9.34c-3.97-1.7-8.36-1.88-12.61-2.19
		c-8.02-0.44-16.12-0.18-24.06,1.11c-4.11,0.7-8.24,1.65-12.04,3.44c-3.09,1.47-5.23,4.37-6.49,7.47
		c-6.39,0.22-12.65-1.38-18.93-2.34c2.2-7.22,4.09-14.65,4.13-22.24c0.06-2.65-0.5-5.28-0.48-7.93c-0.15-6.6,1.29-13.12,3.34-19.36
		c1.75-5.17,3.92-10.21,6.6-14.97c0.21,4.05-0.92,8.15-3.29,11.46c4.81-0.9,9.24-3.61,12.2-7.51c0.89-1.12,1.55-2.4,2.32-3.6
		c-1.66,5.16-6.15,8.73-10.73,11.26c6.5-1.77,12.51-5.52,16.63-10.9c-2.42,4.1-5.61,7.82-9.64,10.42
		c6.09-1.56,11.37-5.35,15.78-9.73c5.27-5.65,11.48-10.46,18.42-13.88c-3.99,9.66-10.82,18.12-19.4,24.07c5-2.5,9.79-5.6,13.6-9.74
		c-4.3,6.09-10.43,10.94-17.55,13.28c9.81-2.21,19.31-7.77,24.48-16.62c-2.23,2.6-4.54,5.22-7.48,7.02
		c6.75-7.24,12.65-15.36,16.95-24.3c-6.1,4.38-10.37,10.79-14.04,17.23c1.74-5.09,4.32-9.88,7.43-14.26
		c3.7-5.19,8.42-9.68,13.99-12.8c-8.87,3.55-17.34,8.5-23.93,15.5c-6.7,6.37-14.74,11.19-23.1,15.02
		c7.96-4.83,14.89-11.21,20.91-18.28c2.35-2.7,4.29-5.75,6.97-8.15c7.25-6.84,17.52-9.65,27.32-9.21c-5.51-2.2-11.69-2.46-17.42-1
		c-6.66,1.65-12.62,5.42-17.65,10.01c-1.18,1.02-2.19,2.21-3.37,3.22C126.46,54.86,130.68,51,135.36,47.83 M123.79,98.19
		c-3.36,0.1-6.63,1-9.8,2.04c0.47-0.58,0.94-1.16,1.41-1.75c-3.11,0.83-6.23,1.99-8.71,4.11c-1.68,1.42-2.64,3.45-3.51,5.42
		c-1.53,3.58-2.68,7.3-3.71,11.05c2.01-3.14,4.38-6.12,7.38-8.37c-2.47,2.24-4.68,4.83-6.03,7.92c3.24-3.37,7.19-6.05,11.54-7.75
		c5.9-2.15,12.22-3.1,18.49-3.06c-0.77-0.5-1.55-1-2.32-1.5c5.14-0.26,10.41-0.2,15.38,1.3l0.17,0.12l0.22,0.07
		c0.12-0.06,0.35-0.17,0.47-0.22c0.92,0.12,1.74,0.66,2.64,0.91c1.74,0.66,3.63,0.38,5.45,0.44c-1.03-0.66-2.06-1.32-3.05-2.02
		c1.91,0.29,3.7,1.11,5.08,2.46c-1.07-1.58-2.23-3.11-3.51-4.54c1.87,1.35,3.46,3.03,4.9,4.82c0.46-0.19,0.91-0.4,1.37-0.62
		c-1.52-2.38-3.38-4.55-5.42-6.51c-2.04-1.89-4.4-3.7-7.23-4.09c-4.1-0.64-8.28-0.4-12.38,0.1c0.92-0.64,1.83-1.28,2.74-1.94
		C131.53,97.29,127.68,97.99,123.79,98.19 M199.27,101c0.99,0.81,1.99,1.59,2.99,2.37c-2.64-0.91-5.78-1.01-8.15,0.66
		c-2.52,1.84-3.88,4.79-4.96,7.62c2.06-2.49,4.79-4.41,7.89-5.37c-2,1.43-3.95,2.97-5.45,4.94c4.15-0.26,8.22-1.68,12.43-1.2
		c3.03,0.16,5.59,1.92,8.3,3.06c-0.26-0.73-0.5-1.45-0.75-2.17c2.83,3.69,6.76,6.42,11.05,8.16c4.41,1.82,7.94,5.57,9.56,10.05
		c-0.03-1.75-0.04-3.5,0.01-5.25c0.69,3.06,1.4,6.11,2.12,9.15c-0.41-6.68-1.23-13.45-3.65-19.73c-1.04-2.72-2.74-5.31-5.39-6.67
		c-4.54-2.44-9.87-2.69-14.91-2.42c0.88-0.59,1.74-1.19,2.61-1.8c-3.37,0.01-6.75,0.05-10.11-0.28
		C201.59,102.04,200.44,101.47,199.27,101z"/>
	<path class="st0" d="M235.75,76.17c3.53,2.21,6.7,4.97,9.61,7.94c4.5,4.66,8.28,10.23,10.01,16.53c1.54,5.41,1.09,11.17-0.1,16.61
		c-1.63,7.11-5.39,14.04-11.51,18.24c6.59-7.35,9.01-17.67,8.01-27.33c-0.41,9.1-5.2,17.49-11.54,23.81
		c4.04-5.22,6.9-11.4,7.91-17.94c0.91-5.57,0.21-11.34-1.74-16.62c-2.53-6.84-6.88-12.93-12.2-17.88c8.34,4.84,14.45,12.97,17.63,22
		C249,91.82,243.89,82.39,235.75,76.17z"/>
	<path class="st0" d="M74.64,99.9c1.28-4.92,3.35-9.65,6.29-13.81c-1.49,3.59-1.93,7.49-2.32,11.32
		c-0.72,6.93-0.19,13.96-1.46,20.84c-1.08,6.25-2.92,12.48-6.19,17.96c1.37-7.46,2.53-14.97,3-22.54c-3.83,3.72-5.69,9-6.53,14.17
		c-0.82,5-0.57,10.09,0.01,15.09c-2.86-8.11-4.2-16.79-3.77-25.38c0.42-8.5,3.08-16.99,8.3-23.78c-2.89,5.55-3.62,11.9-4.04,18.05
		c-0.13,2.07-0.17,4.15-0.14,6.22c2.64-3.42,4.28-7.5,5.4-11.64C73.78,104.25,74.07,102.04,74.64,99.9z"/>
	<path class="st0" d="M43.14,118.19c5.31-11.31,13.67-21.2,23.93-28.32c-4.19,5.23-7.88,10.86-10.97,16.8
		c-2.76,5.37-5.05,11.03-6.25,16.97c-1.46,7.09-0.84,14.48,1.09,21.42c2.02,7.19,5.37,14.01,9.76,20.04
		c-4.75-4.01-8.94-8.75-11.9-14.24c-3.44-6.29-5.17-13.53-4.65-20.7c-1.92,6.15-1.94,12.75-0.64,19.03
		c1.7,8.32,5.14,16.2,9.55,23.43c-8.84-7.64-14.76-18.84-15.24-30.59C37.45,133.77,39.75,125.64,43.14,118.19z"/>
	<path class="st0" d="M255.45,91.96c6.14,6.68,10.61,14.78,13.81,23.23c3.26,8.99,5.32,18.64,4.37,28.23
		c-0.65,6.77-3.14,13.39-7.34,18.75c-3.6,4.66-8.34,8.34-13.46,11.2c4.33-4.33,8.21-9.14,11.37-14.39
		c2.44-4.09,4.45-8.48,5.54-13.14c-3.92,9.63-10.51,18.4-19.35,24c5.42-5.32,9.82-11.7,12.8-18.68c3.85-8.96,5.1-19.1,3.03-28.66
		c0.27,9.23-4.62,17.93-11.34,23.98c-2.6,2.36-5.48,4.4-8.51,6.19c5.7-6.06,10.43-13.08,13.62-20.77c2.88-6.97,4.31-14.69,3.17-22.2
		C262.24,103.21,259.35,97.16,255.45,91.96z"/>
	<path class="st0" d="M126.52,140.16c5.56-0.36,11.15-0.36,16.71,0.06c3.74,0.31,7.7,0.6,10.95,2.69c2.47,1.53,4.08,4.18,4.74,6.97
		c1.53,6.27,0.25,13.01-2.87,18.59c-1.66,2.92-4.01,5.48-6.92,7.19c-2.82,1.63-6.02,2.47-9.17,3.18
		c-7.81,1.59-16.01,1.79-23.79-0.09c-4.06-1.07-8.38-2.85-10.64-6.61c-2.86-4.68-3.96-10.29-3.83-15.73
		c0.16-3.68,0.91-7.6,3.36-10.48c1.37-1.65,3.48-2.34,5.45-3.01C115.68,141.26,121.11,140.57,126.52,140.16z"/>
	<path class="st0" d="M242.39,140.48c-0.47,2.46-1.05,4.89-1.56,7.34c-0.52-0.28-1.04-0.56-1.56-0.84
		C240.32,144.82,241.36,142.65,242.39,140.48z"/>
	<path class="st0" d="M199.14,146.63c7.41-0.73,14.9-0.5,22.28,0.4c5.54,0.76,11.16,1.78,16.23,4.26c2.88,1.42,4.24,4.63,4.86,7.61
		c1.06,5.49,0.31,11.25-1.65,16.45c-1.16,2.86-2.71,5.78-5.37,7.51c-3.98,2.61-8.82,3.43-13.49,3.79
		c-5.9,0.33-11.86-0.31-17.56-1.89c-3.61-1.04-7.3-2.39-10.02-5.09c-4.58-4.44-6.64-10.91-7.01-17.15c0.06-3.97,0.5-8.25,2.99-11.51
		C192.45,148.28,195.85,147.02,199.14,146.63z"/>
	<path class="st0" d="M163.86,151.52c6.77-1.11,13.94-1.2,20.4,1.36c-2.17,6.69-1.71,14.07,0.81,20.59
		c2.06,5.52,5.97,10.48,11.32,13.12c9.18,4.24,19.63,5.47,29.62,4.19c4.01-0.59,8-1.72,11.5-3.82c-0.29,1.54-0.29,3.14-0.81,4.63
		c-7.03,12.29-11.62,25.82-14.8,39.57c-1.86,7.27-4.11,14.49-7.54,21.19c-2.86,5.65-6.57,10.82-10.48,15.78
		c-4.4,5.61-8.94,11.19-14.48,15.74c-4.37,3.6-9.34,6.74-14.94,7.91c-3.06,0.66-6.27,0.44-9.24-0.53c-2.65-0.76-4.94-2.47-7.68-2.93
		c-4.75-0.83-9.54,0.2-14.28,0.55c-5.44,0.44-11.09,0.41-16.25-1.57c-4.96-1.87-9.11-5.36-12.67-9.21c-3.31-3.57-7.7-5.88-12.2-7.58
		c-6.61-2.54-13.69-4.11-19.72-7.97c-4.46-2.77-7.69-7.02-10.72-11.2c-4.66-6.64-8.2-14.05-10.55-21.8c-0.78-2.83-1.75-5.65-1.9-8.6
		c-0.98-2.65-0.97-5.56-1.35-8.34c-0.79,2.58-0.27,5.25-0.09,7.87c-4.38-1.11-8.64-3.75-10.58-7.98c-2.54-5.89-1.6-12.71-4.47-18.49
		c-0.92-1.99-2.32-3.78-2.75-5.98c-1.24-5.69-0.71-11.58-0.18-17.33c1.4,1.06,2.82,2.07,4.25,3.09c-2.28,2.88-2.84,6.78-2.32,10.33
		c0.41,2.56,2.81,3.95,4.2,5.92c2.15,2.67,2.48,6.51,5.21,8.76c0.73,0.62,2.29,1.18,2.78,0.01c1.04-1.79,1.63-4,1.01-6.04
		c-0.45-1.51-1.73-2.57-2.31-4.02c-0.87-1.83-0.82-3.92-0.52-5.88c-0.93,0.94-1.82,2-2.11,3.33c-0.63,2.54,0.21,5.11,1.09,7.48
		c-1.54-2.69-3.16-5.34-5.08-7.78c-0.87-1.14-2.11-2.07-2.5-3.5c-0.82-2.83-0.12-5.8,0.62-8.56c3.25,2.48,6.61,4.87,9.49,7.79
		c-0.65-1.88-1.24-3.78-1.86-5.67c1.69,1.81,3.34,3.71,4.48,5.92c0.89,1.7,0.82,3.68,1.01,5.54c0.44,6.66,0.67,13.34,0.85,20.02
		c3.09,0.88,6.18,1.74,9.27,2.63c0.33-9.14,0.81-18.28,1.7-27.39c0.53-4.74,1-9.55,2.51-14.1c1.94-5.87,4.28-11.6,6.32-17.44
		c5.11,0.87,10.25,1.66,15.34,2.67c1.34,0.23,2.7,0.14,4.05,0.12c-0.72,6.84,0.53,13.98,3.95,19.98c1.55,2.81,3.97,5.06,6.79,6.55
		c4.95,2.65,10.58,3.71,16.13,4.1c8.04,0.45,16.22-0.49,23.8-3.29c5.14-1.9,9.44-5.77,12.08-10.55
		C163.27,164.92,164.79,158.11,163.86,151.52z"/>
</g>
<g id="_x23_000000ff">
	<path d="M136.94,1.89c10.54-0.31,21.74,2.64,29.42,10.2c3.53,3.8,7.19,7.59,11.67,10.26c1.87,1.08,3.95,2.04,6.17,1.91
		c-1.73-5.14-5.57-9.27-9.85-12.45c5.43,2.51,10.1,6.53,13.6,11.37c1.56,2.08,2.78,4.37,4.03,6.64c-1.46-4.23-1.7-8.82-0.76-13.2
		c0.01,4.01,1.09,7.91,2.41,11.66c0.6,1.96,1.61,3.81,3.07,5.26c3.14,3.2,7.27,5.2,11.4,6.8c2.64,1.01,5.37,1.81,8.13,2.43
		c-1.64-1.36-3.37-2.61-5.03-3.95c8.48,1.6,16.81,4.39,24.27,8.77c4.46,2.79,6.78,7.87,8.07,12.78c1.39,5.34,1.67,10.91,1.59,16.38
		c12.78,11.27,22.42,25.95,28.17,41.96c3.32,9.22,5.39,18.93,5.84,28.73c0.37,6.71-0.35,13.64-3.18,19.81
		c-3.14,7.02-8.88,12.84-15.91,15.97c5.31-3.61,9.56-8.64,12.64-14.25c-4.56,6.15-11.92,9.32-19.07,11.39
		c5.09-2.43,9.95-5.63,13.48-10.09c2.28-2.86,4-6.24,4.51-9.89c-1.39,2.5-2.81,5.02-4.75,7.14c-4.31,4.83-10,8.34-16.13,10.38
		c-2.57,8.13-5.27,16.21-8.14,24.24c-3.52,10.99-9.86,20.85-17.3,29.59c-2.55,6.68-4.2,13.67-6.93,20.28
		c-2.94,7.35-6.57,14.45-11.05,20.99c-3.51,5.01-7.47,9.91-12.73,13.18c-4.88,3.15-9.48,6.8-14.76,9.3
		c-3.78,1.81-7.98,2.78-12.18,2.69c-7.28,0.07-14.29-2.35-21.55-2.54c-2.52-0.18-5.05,0.05-7.57,0.14
		c-6.47-0.03-12.87-1.74-18.68-4.55c-2.74-1.34-5.38-2.91-7.74-4.86c-1.32-1.08-2.37-2.43-3.72-3.47c-2.69-2.21-6.05-3.28-9.28-4.44
		c-8.65-3.05-16.89-7.43-23.9-13.38c-4.93-4.2-9.2-9.39-11.5-15.5c-2.81-7.32-4.15-15.09-5.2-22.83c-5.11-1.16-9.65-4.39-12.64-8.67
		c-2.54-3.68-4.38-7.92-4.88-12.39c-0.38-3.42-0.68-6.87-1.67-10.18c-0.83-3.18-2.38-6.12-3.18-9.32
		c-1.68-6.4-1.82-13.16-0.72-19.68c-6.04-6.69-9.75-15.07-12.69-23.49c-1.04-3.14-2.31-6.28-2.46-9.62
		c-0.39-6.06,1.99-12.1,5.9-16.67c-1.14-6.39-0.88-13.05,0.85-19.31c1.15-3.5,3.6-6.38,5.96-9.14c6.59-7.3,14.21-13.6,21.98-19.6
		c-2.99,0.12-5.98,0.29-8.97,0.45c2.59-0.74,4.98-2.03,7.34-3.31c6.84-3.76,13.04-8.53,19.55-12.81
		c11.86-7.86,24.21-14.94,36.5-22.09c5.6-3.2,11.11-6.61,17.05-9.18c6.11-2.7,12.56-4.78,19.22-5.47c3.73-0.36,7.55-0.27,11.19,0.73
		c-8.24-4.05-18.47-4.32-26.57,0.23c4.85-3.97,10.56-7.23,16.88-7.99c3.8-0.54,7.7,0.08,11.24,1.54c-3.95-3.95-9.32-6.02-14.59-7.51
		C141.58,2.65,139.27,2.19,136.94,1.89 M157.65,22.65c4.87,0.99,9.37,3.54,12.9,7.01c-1.16,0.35-2.38,0.45-3.57,0.26
		c-3.88-0.52-7.56-1.92-11.17-3.36c-4.33-1.76-8.98-2.84-13.67-2.75c-4.75,0.07-9.43,1.38-13.64,3.54
		c-5.81,2.95-10.76,7.32-15.19,12.05c5.03-3.67,10.37-6.99,16.19-9.28c3.79-1.45,7.88-2.56,11.97-2.03
		c2.14,0.22,4.03,1.31,6.02,2.02c4.84,1.78,9.87,3.01,14.93,3.96c1,0.22,2.12,0,3,0.64c-6.53-0.71-13.18-0.44-19.65,0.73
		c-7.34,1.37-14.66,4.32-19.94,9.76c8.2-5,17.78-8.32,27.49-7.73c3.81,0.17,7.41,1.51,11.14,2.11c7.75,1.37,15.76,1.65,23.51,0.19
		c-7.43,0.04-14.87-0.92-22.03-2.95c2.6,0.28,5.19,0.69,7.81,0.79c3.24,0.13,6.61,0.18,9.67-1.05c-1.97-3.89-5.23-7.01-8.93-9.25
		C169.44,24.26,163.52,22.84,157.65,22.65 M135.36,47.83c-4.68,3.17-8.91,7.03-12.49,11.39c1.18-1.01,2.2-2.2,3.37-3.22
		c5.02-4.59,10.99-8.36,17.65-10.01c5.73-1.46,11.92-1.19,17.42,1c-9.8-0.44-20.07,2.37-27.32,9.21c-2.68,2.4-4.63,5.45-6.97,8.15
		c-6.02,7.07-12.95,13.45-20.91,18.28c8.37-3.83,16.4-8.66,23.1-15.02c6.59-7,15.06-11.96,23.93-15.5
		c-5.57,3.12-10.29,7.61-13.99,12.8c-3.11,4.38-5.7,9.17-7.43,14.26c3.68-6.44,7.94-12.84,14.04-17.23
		c-4.3,8.94-10.2,17.06-16.95,24.3c2.95-1.8,5.26-4.42,7.48-7.02c-5.17,8.84-14.67,14.41-24.48,16.62
		c7.11-2.34,13.25-7.19,17.55-13.28c-3.81,4.14-8.6,7.24-13.6,9.74c8.59-5.95,15.41-14.41,19.4-24.07
		c-6.94,3.42-13.15,8.23-18.42,13.88c-4.41,4.38-9.69,8.17-15.78,9.73c4.03-2.6,7.21-6.32,9.64-10.42
		c-4.12,5.37-10.13,9.13-16.63,10.9c4.58-2.53,9.07-6.1,10.73-11.26c-0.77,1.2-1.43,2.48-2.32,3.6c-2.95,3.9-7.39,6.61-12.2,7.51
		c2.37-3.31,3.5-7.41,3.29-11.46c-2.68,4.75-4.84,9.8-6.6,14.97c-2.05,6.24-3.5,12.76-3.34,19.36c-0.03,2.65,0.54,5.28,0.48,7.93
		c-0.04,7.59-1.93,15.02-4.13,22.24c6.28,0.95,12.53,2.56,18.93,2.34c1.27-3.1,3.41-6,6.49-7.47c3.79-1.79,7.92-2.74,12.04-3.44
		c7.94-1.29,16.03-1.54,24.06-1.11c4.25,0.32,8.64,0.49,12.61,2.19c4.13,1.65,7.4,5.14,8.83,9.34c7.79-1.32,16.08-1.35,23.47,1.75
		c1.78-2.49,4.31-4.4,7.18-5.46c4.6-1.77,9.62-1.52,14.47-1.74c10.13,0.18,20.51,0.99,30.01,4.79c-0.28-5.06,2.14-10.03,6.05-13.18
		c-3.19,1.52-6.39,3.01-9.59,4.51c4.9-4.32,8.05-10.32,9.71-16.57c-2.73,3.79-5.96,7.21-9.44,10.32c1.46-1.83,2.96-3.65,4.11-5.7
		c2.58-4.42,4.12-9.72,3.08-14.84c-1.35,3.04-3.32,5.82-5.92,7.91c3.58-5.54,5.5-12.35,4.29-18.93c-0.62-3.93-2.58-7.45-4.43-10.91
		c-2.77-5.08-5.91-10-9.79-14.32c-3.32-3.67-7.26-6.97-12-8.59c-3.67-1.23-6.97-3.36-9.92-5.83c-3.68-3.1-6.92-6.71-9.68-10.65
		c-3.15,4.57-6.97,8.8-11.71,11.75c-5.52,3.21-12.17,3.45-18.4,3.18c4.62-2.06,9.53-3.86,13.38-7.27
		c-11,2.18-21.48,7.68-29.06,16.01c-1.98,2.13-3.55,4.6-5.4,6.84c-2.16,2.64-4.54,5.1-7.2,7.24c-3.78,3-8.24,5.51-13.14,5.86
		c5.5-3.41,10.44-7.98,13.46-13.76c0.7-1.5,1.87-2.7,2.84-4.03c3.72-4.91,7.28-9.95,11.34-14.58c4.59-5.14,10.96-8.79,17.84-9.61
		c-3.97,1.83-7.07,5.18-9.03,9.05c4.81-4.66,11.43-7.11,18.04-7.61c6.49-0.46,13.12-2.79,17.65-7.63
		c-5.55,2.34-11.73,3.02-17.66,1.97c-8.77-1.48-17.23-4.93-26.23-4.89C145.45,42.3,140.05,44.71,135.36,47.83 M235.75,76.17
		c8.14,6.22,13.25,15.65,16.08,25.35c-3.18-9.03-9.29-17.16-17.63-22c5.32,4.96,9.66,11.05,12.2,17.88
		c1.95,5.28,2.65,11.05,1.74,16.62c-1,6.54-3.87,12.72-7.91,17.94c6.34-6.32,11.12-14.71,11.54-23.81
		c0.99,9.66-1.42,19.99-8.01,27.33c6.12-4.19,9.88-11.13,11.51-18.24c1.19-5.43,1.64-11.2,0.1-16.61
		c-1.73-6.3-5.51-11.87-10.01-16.53C242.44,81.14,239.28,78.38,235.75,76.17 M74.64,99.9c-0.57,2.15-0.86,4.36-1.45,6.5
		c-1.11,4.15-2.76,8.22-5.4,11.64c-0.03-2.08,0.01-4.15,0.14-6.22c0.42-6.15,1.15-12.5,4.04-18.05c-5.22,6.79-7.87,15.29-8.3,23.78
		c-0.43,8.6,0.92,17.27,3.77,25.38c-0.58-5.01-0.83-10.1-0.01-15.09c0.84-5.17,2.7-10.44,6.53-14.17c-0.47,7.57-1.63,15.08-3,22.54
		c3.27-5.48,5.11-11.71,6.19-17.96c1.27-6.88,0.74-13.91,1.46-20.84c0.38-3.83,0.83-7.73,2.32-11.32
		C77.99,90.24,75.92,94.98,74.64,99.9 M43.14,118.19c-3.38,7.45-5.69,15.59-5.31,23.83c0.48,11.75,6.4,22.95,15.24,30.59
		c-4.41-7.22-7.86-15.11-9.55-23.43c-1.3-6.28-1.28-12.88,0.64-19.03c-0.52,7.17,1.2,14.41,4.65,20.7
		c2.96,5.49,7.15,10.24,11.9,14.24c-4.4-6.04-7.74-12.85-9.76-20.04c-1.93-6.93-2.55-14.33-1.09-21.42
		c1.19-5.93,3.49-11.6,6.25-16.97c3.1-5.94,6.78-11.58,10.97-16.8C56.81,96.99,48.45,106.88,43.14,118.19 M255.45,91.96
		c3.9,5.2,6.8,11.25,7.7,17.73c1.13,7.51-0.29,15.23-3.17,22.2c-3.19,7.69-7.92,14.72-13.62,20.77c3.02-1.78,5.91-3.82,8.51-6.19
		c6.72-6.05,11.62-14.75,11.34-23.98c2.07,9.56,0.82,19.71-3.03,28.66c-2.99,6.99-7.38,13.36-12.8,18.68
		c8.85-5.6,15.44-14.37,19.35-24c-1.09,4.65-3.1,9.05-5.54,13.14c-3.16,5.25-7.04,10.06-11.37,14.39c5.12-2.87,9.85-6.54,13.46-11.2
		c4.21-5.36,6.69-11.98,7.34-18.75c0.94-9.6-1.11-19.25-4.37-28.23C266.06,106.74,261.59,98.65,255.45,91.96 M126.52,140.16
		c-5.41,0.41-10.84,1.1-16.02,2.76c-1.96,0.67-4.07,1.36-5.45,3.01c-2.45,2.89-3.2,6.8-3.36,10.48c-0.12,5.43,0.98,11.05,3.83,15.73
		c2.26,3.76,6.58,5.54,10.64,6.61c7.78,1.88,15.98,1.68,23.79,0.09c3.15-0.72,6.35-1.55,9.17-3.18c2.9-1.71,5.25-4.27,6.92-7.19
		c3.12-5.59,4.41-12.32,2.87-18.59c-0.67-2.79-2.27-5.44-4.74-6.97c-3.24-2.09-7.21-2.38-10.95-2.69
		C137.67,139.8,132.08,139.8,126.52,140.16 M242.39,140.48c-1.03,2.17-2.07,4.34-3.11,6.5c0.52,0.27,1.04,0.55,1.56,0.84
		C241.34,145.37,241.92,142.94,242.39,140.48 M199.14,146.63c-3.29,0.39-6.69,1.65-8.75,4.37c-2.49,3.27-2.93,7.54-2.99,11.51
		c0.37,6.24,2.43,12.71,7.01,17.15c2.72,2.7,6.41,4.05,10.02,5.09c5.7,1.58,11.66,2.23,17.56,1.89c4.66-0.36,9.51-1.18,13.49-3.79
		c2.67-1.73,4.22-4.64,5.37-7.51c1.96-5.2,2.72-10.96,1.65-16.45c-0.62-2.98-1.98-6.19-4.86-7.61c-5.06-2.48-10.69-3.5-16.23-4.26
		C214.04,146.13,206.55,145.9,199.14,146.63 M163.86,151.52c0.92,6.59-0.6,13.4-3.8,19.19c-2.65,4.77-6.95,8.64-12.08,10.55
		c-7.57,2.8-15.76,3.74-23.8,3.29c-5.55-0.38-11.19-1.44-16.13-4.1c-2.82-1.5-5.24-3.75-6.79-6.55c-3.42-6-4.66-13.14-3.95-19.98
		c-1.35,0.01-2.72,0.11-4.05-0.12c-5.09-1.01-10.23-1.8-15.34-2.67c-2.04,5.84-4.37,11.57-6.32,17.44
		c-1.52,4.55-1.99,9.35-2.51,14.1c-0.89,9.11-1.37,18.25-1.7,27.39c-3.09-0.88-6.18-1.74-9.27-2.63
		c-0.18-6.68-0.41-13.36-0.85-20.02c-0.2-1.86-0.12-3.83-1.01-5.54c-1.14-2.21-2.79-4.11-4.48-5.92c0.61,1.89,1.21,3.79,1.86,5.67
		c-2.88-2.92-6.24-5.31-9.49-7.79c-0.74,2.76-1.45,5.73-0.62,8.56c0.39,1.44,1.63,2.37,2.5,3.5c1.92,2.44,3.54,5.09,5.08,7.78
		c-0.88-2.37-1.72-4.95-1.09-7.48c0.28-1.33,1.18-2.39,2.11-3.33c-0.3,1.96-0.35,4.04,0.52,5.88c0.58,1.45,1.86,2.51,2.31,4.02
		c0.62,2.04,0.03,4.24-1.01,6.04c-0.48,1.17-2.04,0.6-2.78-0.01c-2.73-2.25-3.06-6.09-5.21-8.76c-1.39-1.98-3.79-3.37-4.2-5.92
		c-0.53-3.55,0.04-7.46,2.32-10.33c-1.42-1.02-2.85-2.04-4.25-3.09c-0.53,5.75-1.06,11.63,0.18,17.33c0.43,2.2,1.83,3.99,2.75,5.98
		c2.88,5.78,1.94,12.6,4.47,18.49c1.94,4.23,6.2,6.86,10.58,7.98c-0.17-2.62-0.7-5.29,0.09-7.87c0.37,2.78,0.36,5.69,1.35,8.34
		c0.15,2.95,1.11,5.77,1.9,8.6c2.36,7.75,5.89,15.16,10.55,21.8c3.04,4.18,6.27,8.43,10.72,11.2c6.03,3.86,13.1,5.44,19.72,7.97
		c4.5,1.7,8.9,4.01,12.2,7.58c3.56,3.85,7.7,7.35,12.67,9.21c5.16,1.98,10.82,2.01,16.25,1.57c4.74-0.36,9.53-1.39,14.28-0.55
		c2.74,0.46,5.03,2.18,7.68,2.93c2.97,0.97,6.18,1.19,9.24,0.53c5.61-1.17,10.57-4.31,14.94-7.91c5.53-4.55,10.07-10.13,14.48-15.74
		c3.91-4.96,7.62-10.13,10.48-15.78c3.43-6.7,5.68-13.92,7.54-21.19c3.18-13.75,7.77-27.28,14.8-39.57
		c0.51-1.49,0.52-3.09,0.81-4.63c-3.5,2.09-7.49,3.23-11.5,3.82c-9.98,1.29-20.44,0.05-29.62-4.19c-5.35-2.63-9.27-7.6-11.32-13.12
		c-2.52-6.53-2.99-13.9-0.81-20.59C177.81,150.32,170.63,150.41,163.86,151.52z"/>
	<path d="M123.79,98.19c3.9-0.19,7.74-0.89,11.56-1.64c-0.91,0.66-1.83,1.3-2.74,1.94c4.1-0.5,8.28-0.74,12.38-0.1
		c2.83,0.38,5.19,2.2,7.23,4.09c2.03,1.96,3.89,4.13,5.42,6.51c-0.45,0.22-0.91,0.42-1.37,0.62c-1.44-1.79-3.02-3.47-4.9-4.82
		c1.28,1.43,2.43,2.95,3.51,4.54c-1.38-1.35-3.18-2.17-5.08-2.46c0.99,0.71,2.02,1.36,3.05,2.02c-1.82-0.05-3.71,0.22-5.45-0.44
		c-0.9-0.25-1.72-0.79-2.64-0.91c-0.12,0.05-0.36,0.17-0.47,0.22l-0.22-0.07l-0.17-0.12c-4.97-1.5-10.24-1.56-15.38-1.3
		c0.77,0.5,1.55,1,2.32,1.5c-6.27-0.04-12.59,0.92-18.49,3.06c-4.35,1.7-8.3,4.38-11.54,7.75c1.35-3.08,3.56-5.68,6.03-7.92
		c-3,2.26-5.36,5.23-7.38,8.37c1.03-3.75,2.18-7.47,3.71-11.05c0.87-1.97,1.83-4,3.51-5.42c2.48-2.12,5.6-3.27,8.71-4.11
		c-0.46,0.59-0.94,1.17-1.41,1.75C117.16,99.19,120.43,98.29,123.79,98.19z"/>
	<path d="M199.27,101c1.17,0.47,2.32,1.04,3.59,1.13c3.36,0.33,6.74,0.29,10.11,0.28c-0.87,0.61-1.73,1.22-2.61,1.8
		c5.04-0.27,10.37-0.02,14.91,2.42c2.65,1.36,4.36,3.96,5.39,6.67c2.42,6.28,3.24,13.06,3.65,19.73c-0.73-3.05-1.44-6.1-2.12-9.15
		c-0.05,1.75-0.04,3.5-0.01,5.25c-1.63-4.48-5.15-8.23-9.56-10.05c-4.29-1.74-8.22-4.47-11.05-8.16c0.25,0.73,0.49,1.45,0.75,2.17
		c-2.72-1.14-5.28-2.91-8.3-3.06c-4.2-0.49-8.27,0.94-12.43,1.2c1.5-1.97,3.45-3.51,5.45-4.94c-3.1,0.96-5.83,2.88-7.89,5.37
		c1.08-2.83,2.44-5.78,4.96-7.62c2.37-1.67,5.51-1.57,8.15-0.66C201.26,102.59,200.26,101.8,199.27,101z"/>
</g>
</svg>
