<?xml version="1.0" encoding="UTF-8" ?>
<!DOCTYPE svg PUBLIC "-//W3C//DTD SVG 1.1//EN" "http://www.w3.org/Graphics/SVG/1.1/DTD/svg11.dtd">
<svg width="1500pt" height="911pt" viewBox="0 0 1500 911" version="1.1" xmlns="http://www.w3.org/2000/svg">
<g id="#ffffffff">
<path fill="#ffffff" opacity="1.00" d=" M 712.10 39.06 C 716.22 37.58 720.71 38.31 724.99 38.31 C 737.93 38.50 750.60 41.59 762.88 45.44 C 777.23 50.59 790.78 58.48 801.36 69.58 C 811.92 80.84 822.97 92.54 837.36 98.82 C 832.03 89.19 823.97 81.33 815.17 74.85 C 812.08 72.75 812.33 67.10 816.07 65.89 C 819.07 64.67 821.91 66.89 824.48 68.19 C 837.88 75.18 849.77 85.18 858.73 97.37 C 858.93 92.43 859.70 87.52 860.89 82.73 C 861.74 79.50 866.15 77.86 868.76 80.12 C 870.70 81.45 871.16 83.91 870.95 86.12 C 870.38 97.20 874.67 107.66 877.99 118.01 C 881.31 126.63 888.95 132.52 896.54 137.24 C 902.71 140.59 908.99 143.85 915.72 145.95 C 916.26 143.36 918.05 140.80 921.01 140.99 C 945.76 145.31 969.94 153.62 991.67 166.29 C 1003.81 174.17 1010.87 187.60 1014.99 201.10 C 1019.24 216.81 1020.98 233.15 1020.53 249.40 C 1053.93 279.02 1079.34 317.16 1095.61 358.62 C 1105.42 383.35 1111.62 409.46 1114.39 435.92 C 1115.35 446.93 1115.39 458.01 1114.97 469.05 C 1113.26 489.13 1106.46 509.04 1093.86 524.92 C 1085.59 535.46 1075.00 544.16 1063.07 550.23 C 1060.55 551.43 1057.96 553.65 1055.01 552.75 C 1051.03 551.90 1050.23 545.74 1053.45 543.56 C 1057.07 541.27 1060.33 538.47 1063.74 535.89 C 1056.50 539.59 1048.66 541.91 1040.94 544.35 C 1037.98 545.31 1035.32 543.39 1033.60 541.19 C 1026.63 563.38 1019.19 585.42 1011.23 607.27 C 1001.37 636.26 984.01 662.06 964.49 685.40 C 957.10 706.44 951.55 728.14 942.51 748.59 C 930.59 775.60 916.00 801.95 895.57 823.52 C 889.36 829.79 882.47 835.43 874.85 839.89 C 858.14 851.11 841.86 864.00 822.13 869.47 C 811.40 872.92 800.00 872.34 788.90 871.90 C 772.51 870.47 756.56 865.30 740.03 865.43 C 733.04 864.48 726.06 865.86 719.06 865.56 C 704.45 866.05 690.16 862.19 676.46 857.53 C 663.32 852.25 650.46 845.71 639.89 836.16 C 635.89 832.16 631.95 827.93 626.95 825.16 C 622.76 822.92 618.47 820.86 613.97 819.37 C 585.82 810.05 558.82 796.21 536.61 776.36 C 524.05 765.14 513.38 751.54 506.99 735.87 C 498.79 715.73 495.28 694.13 491.78 672.79 C 478.06 668.28 465.56 659.62 457.42 647.59 C 453.43 642.30 450.56 636.30 447.81 630.30 C 443.71 620.68 442.73 610.14 441.57 599.85 C 440.81 593.06 439.10 586.45 437.37 579.87 C 435.84 574.20 432.79 569.10 431.33 563.42 C 428.29 553.88 426.20 544.01 425.50 534.02 C 425.29 523.48 425.05 512.88 426.79 502.44 C 407.55 480.44 397.07 452.54 388.13 425.13 C 384.64 415.45 384.64 404.92 385.79 394.81 C 388.18 382.63 393.41 370.97 401.17 361.25 C 398.10 342.01 399.22 321.88 405.65 303.42 C 410.72 292.35 419.00 283.16 427.18 274.28 C 440.84 260.21 455.60 247.22 470.96 235.02 C 467.31 234.91 463.63 235.82 460.02 235.25 C 455.81 234.34 455.43 228.05 458.92 225.98 C 461.72 224.61 464.93 224.25 467.73 222.83 C 480.33 216.87 492.29 209.62 503.83 201.80 C 543.67 173.36 585.83 148.41 628.19 123.97 C 648.81 112.32 668.83 99.20 691.09 90.84 C 690.66 89.58 690.20 88.32 689.97 87.00 C 690.20 82.74 694.70 80.94 697.53 78.52 C 712.35 66.95 730.35 59.02 749.26 57.96 C 737.64 53.06 725.27 49.90 712.80 48.15 C 708.76 47.20 708.35 40.67 712.10 39.06 M 714.54 43.39 C 721.02 44.23 727.45 45.49 733.76 47.23 C 748.43 51.37 763.35 57.14 774.33 68.11 C 764.49 64.05 753.65 62.33 743.08 63.84 C 725.52 65.96 709.64 75.00 696.15 86.05 C 718.66 73.41 747.12 74.15 770.02 85.42 C 759.91 82.65 749.29 82.39 738.91 83.39 C 720.38 85.32 702.45 91.09 685.47 98.61 C 668.96 105.75 653.64 115.23 638.07 124.14 C 603.88 144.01 569.56 163.71 536.58 185.56 C 518.48 197.45 501.25 210.72 482.23 221.18 C 475.67 224.73 469.02 228.30 461.81 230.37 C 470.12 229.91 478.42 229.44 486.74 229.11 C 465.12 245.79 443.95 263.29 425.62 283.60 C 419.07 291.28 412.26 299.28 409.05 309.02 C 404.25 326.43 403.52 344.94 406.69 362.71 C 395.82 375.42 389.20 392.20 390.28 409.06 C 390.68 418.36 394.23 427.08 397.11 435.82 C 405.28 459.24 415.60 482.54 432.39 501.14 C 429.33 519.25 429.71 538.05 434.38 555.85 C 436.60 564.73 440.91 572.90 443.22 581.75 C 445.99 590.95 446.81 600.55 447.87 610.05 C 449.26 622.48 454.38 634.25 461.44 644.49 C 469.76 656.39 482.36 665.36 496.58 668.59 C 499.49 690.10 503.21 711.72 511.03 732.06 C 517.43 749.06 529.29 763.47 543.00 775.16 C 562.48 791.69 585.40 803.89 609.44 812.36 C 618.40 815.60 627.75 818.57 635.23 824.71 C 638.98 827.59 641.90 831.36 645.56 834.35 C 652.11 839.76 659.46 844.13 667.08 847.85 C 683.23 855.66 701.01 860.43 719.01 860.50 C 726.02 860.24 733.04 859.61 740.06 860.11 C 760.25 860.63 779.74 867.35 799.98 867.16 C 811.66 867.40 823.33 864.70 833.84 859.67 C 848.52 852.73 861.30 842.58 874.87 833.82 C 889.48 824.73 900.48 811.09 910.25 797.17 C 922.68 778.98 932.78 759.25 940.96 738.81 C 948.56 720.43 953.16 700.98 960.24 682.42 C 980.93 658.13 998.57 630.71 1008.35 600.15 C 1016.33 577.84 1023.83 555.36 1030.97 532.76 C 1048.00 527.11 1063.82 517.34 1075.81 503.91 C 1081.23 498.01 1085.16 491.00 1089.03 484.05 C 1087.61 494.19 1082.81 503.60 1076.48 511.55 C 1066.65 523.95 1053.14 532.85 1038.99 539.60 C 1058.85 533.83 1079.31 525.02 1092.00 507.92 C 1083.44 523.50 1071.64 537.50 1056.87 547.53 C 1076.41 538.84 1092.39 522.64 1101.11 503.13 C 1108.98 485.98 1110.98 466.73 1109.95 448.06 C 1108.72 420.80 1102.96 393.82 1093.72 368.18 C 1077.72 323.66 1050.93 282.86 1015.39 251.52 C 1015.59 236.29 1014.82 220.81 1010.96 205.97 C 1007.36 192.30 1000.91 178.19 988.51 170.43 C 967.75 158.26 944.60 150.50 921.02 146.06 C 925.64 149.78 930.45 153.26 935.01 157.05 C 927.33 155.31 919.75 153.11 912.40 150.29 C 900.91 145.84 889.43 140.29 880.70 131.38 C 876.63 127.33 873.84 122.21 872.16 116.75 C 868.47 106.32 865.48 95.47 865.45 84.33 C 862.82 96.50 863.49 109.25 867.55 121.02 C 864.09 114.71 860.70 108.33 856.35 102.56 C 846.64 89.11 833.66 77.93 818.55 70.96 C 830.46 79.81 841.13 91.29 845.94 105.58 C 839.77 105.94 834.00 103.29 828.79 100.28 C 816.31 92.86 806.14 82.31 796.33 71.75 C 774.99 50.74 743.85 42.52 714.54 43.39 Z" />
<path fill="#ffffff" opacity="1.00" d=" M 772.11 101.11 C 788.44 101.62 804.90 105.59 818.99 114.04 C 829.28 120.27 838.34 128.95 843.81 139.76 C 835.30 143.18 825.94 143.02 816.93 142.67 C 809.64 142.41 802.44 141.25 795.21 140.48 C 815.10 146.13 835.78 148.79 856.45 148.69 C 834.89 152.74 812.62 151.98 791.08 148.16 C 780.70 146.48 770.69 142.76 760.11 142.29 C 733.12 140.65 706.49 149.88 683.68 163.79 C 698.34 148.65 718.70 140.45 739.11 136.64 C 757.08 133.39 775.58 132.64 793.73 134.61 C 791.29 132.83 788.17 133.46 785.39 132.84 C 771.31 130.21 757.33 126.80 743.88 121.84 C 738.33 119.86 733.08 116.84 727.13 116.22 C 715.77 114.76 704.39 117.85 693.85 121.87 C 677.68 128.22 662.82 137.45 648.84 147.66 C 661.14 134.51 674.91 122.38 691.06 114.17 C 702.77 108.16 715.79 104.52 728.99 104.33 C 742.02 104.07 754.96 107.07 766.99 111.97 C 777.03 115.98 787.28 119.86 798.06 121.31 C 801.37 121.84 804.76 121.57 807.98 120.60 C 798.15 110.96 785.65 103.87 772.11 101.11 Z" />
<path fill="#ffffff" opacity="1.00" d=" M 710.16 171.12 C 723.19 162.43 738.19 155.75 754.07 155.34 C 779.09 155.21 802.62 164.82 827.00 168.93 C 843.48 171.86 860.67 169.96 876.10 163.46 C 863.53 176.91 845.08 183.40 827.04 184.68 C 808.66 186.09 790.27 192.90 776.89 205.85 C 782.35 195.10 790.96 185.79 802.00 180.70 C 782.87 182.99 765.17 193.14 752.41 207.42 C 741.11 220.31 731.20 234.32 720.87 247.97 C 718.19 251.67 714.92 254.99 712.98 259.17 C 704.57 275.25 690.84 287.95 675.55 297.43 C 689.19 296.45 701.57 289.48 712.09 281.14 C 719.48 275.20 726.10 268.34 732.10 261.01 C 737.24 254.78 741.59 247.92 747.10 241.99 C 768.16 218.81 797.31 203.53 827.89 197.47 C 817.21 206.93 803.55 211.93 790.70 217.67 C 808.01 218.42 826.50 217.74 841.86 208.82 C 855.03 200.60 865.67 188.85 874.42 176.14 C 882.09 187.09 891.10 197.13 901.32 205.75 C 909.52 212.62 918.70 218.52 928.90 221.95 C 942.07 226.44 953.04 235.62 962.26 245.82 C 973.03 257.82 981.76 271.50 989.47 285.63 C 994.63 295.25 1000.07 305.03 1001.80 315.96 C 1005.16 334.24 999.83 353.18 989.87 368.58 C 997.10 362.76 1002.60 355.04 1006.34 346.58 C 1009.25 360.82 1004.97 375.55 997.79 387.85 C 994.58 393.55 990.41 398.60 986.36 403.70 C 996.02 395.04 1005.00 385.54 1012.60 375.00 C 1007.98 392.38 999.23 409.07 985.61 421.07 C 994.50 416.89 1003.41 412.75 1012.28 408.53 C 1001.39 417.29 994.66 431.10 995.45 445.17 C 969.04 434.60 940.18 432.37 912.01 431.86 C 898.55 432.48 884.59 431.79 871.79 436.71 C 863.82 439.66 856.79 444.97 851.84 451.89 C 831.29 443.28 808.23 443.36 786.58 447.02 C 782.61 435.34 773.51 425.62 762.04 421.04 C 751.00 416.30 738.81 415.82 726.99 414.94 C 704.68 413.73 682.18 414.43 660.10 418.02 C 648.66 419.98 637.18 422.62 626.63 427.59 C 618.05 431.68 612.10 439.74 608.58 448.37 C 590.80 448.99 573.41 444.52 555.95 441.87 C 562.07 421.80 567.32 401.15 567.43 380.04 C 567.59 372.66 566.03 365.37 566.10 357.99 C 565.67 339.64 569.69 321.50 575.39 304.16 C 580.26 289.79 586.28 275.77 593.73 262.55 C 594.31 273.80 591.16 285.21 584.58 294.40 C 597.95 291.91 610.28 284.36 618.49 273.52 C 620.96 270.40 622.80 266.85 624.93 263.50 C 620.31 277.85 607.82 287.78 595.09 294.82 C 613.17 289.91 629.87 279.46 641.33 264.52 C 634.59 275.92 625.73 286.27 614.53 293.49 C 631.47 289.14 646.15 278.61 658.40 266.43 C 673.04 250.72 690.32 237.36 709.61 227.85 C 698.52 254.70 679.54 278.22 655.67 294.77 C 669.58 287.82 682.89 279.19 693.48 267.68 C 681.53 284.61 664.47 298.10 644.69 304.61 C 671.97 298.47 698.37 283.00 712.75 258.41 C 706.56 265.63 700.13 272.91 691.94 277.92 C 710.72 257.78 727.11 235.21 739.07 210.35 C 722.10 222.54 710.25 240.34 700.03 258.25 C 704.86 244.09 712.05 230.78 720.70 218.60 C 730.98 204.18 744.10 191.68 759.60 183.01 C 734.95 192.87 711.38 206.65 693.07 226.11 C 674.45 243.81 652.10 257.22 628.84 267.88 C 650.97 254.46 670.23 236.71 686.97 217.06 C 693.50 209.55 698.91 201.07 706.36 194.40 C 726.51 175.38 755.07 167.57 782.31 168.79 C 767.00 162.68 749.80 161.95 733.87 166.00 C 715.36 170.60 698.78 181.06 684.81 193.83 C 681.54 196.67 678.71 199.97 675.43 202.79 C 685.40 190.66 697.14 179.93 710.16 171.12 M 677.97 311.12 C 668.63 311.41 659.54 313.91 650.72 316.79 C 652.02 315.17 653.34 313.57 654.63 311.93 C 645.99 314.25 637.30 317.46 630.41 323.35 C 625.74 327.30 623.08 332.95 620.65 338.43 C 616.41 348.37 613.21 358.72 610.34 369.14 C 615.94 360.41 622.51 352.13 630.85 345.86 C 623.97 352.09 617.84 359.30 614.08 367.87 C 623.08 358.51 634.07 351.05 646.17 346.32 C 662.57 340.35 680.14 337.70 697.57 337.80 C 695.42 336.40 693.26 335.02 691.12 333.62 C 705.41 332.89 720.07 333.07 733.88 337.23 L 734.34 337.55 L 734.94 337.75 C 735.26 337.59 735.92 337.28 736.25 337.13 C 738.82 337.47 741.09 338.96 743.60 339.66 C 748.44 341.49 753.70 340.73 758.76 340.87 C 755.90 339.03 753.03 337.21 750.27 335.24 C 755.57 336.04 760.55 338.32 764.40 342.08 C 761.42 337.68 758.20 333.44 754.65 329.47 C 759.85 333.21 764.27 337.89 768.26 342.87 C 769.53 342.33 770.80 341.75 772.06 341.15 C 767.82 334.52 762.65 328.51 757.00 323.05 C 751.33 317.80 744.78 312.76 736.91 311.69 C 725.51 309.92 713.89 310.59 702.49 311.97 C 705.04 310.19 707.59 308.40 710.12 306.57 C 699.50 308.64 688.80 310.59 677.97 311.12 M 887.85 318.94 C 890.59 321.18 893.38 323.36 896.17 325.53 C 888.83 322.99 880.10 322.72 873.52 327.36 C 866.51 332.48 862.73 340.68 859.72 348.56 C 865.46 341.64 873.04 336.29 881.67 333.63 C 876.10 337.60 870.68 341.89 866.52 347.37 C 878.07 346.64 889.38 342.69 901.07 344.04 C 909.49 344.48 916.61 349.38 924.16 352.56 C 923.44 350.54 922.77 348.54 922.07 346.52 C 929.94 356.77 940.87 364.38 952.79 369.21 C 965.06 374.26 974.86 384.70 979.38 397.15 C 979.30 392.29 979.26 387.42 979.40 382.56 C 981.31 391.06 983.28 399.54 985.30 408.01 C 984.16 389.45 981.88 370.61 975.14 353.15 C 972.26 345.60 967.51 338.39 960.15 334.60 C 947.54 327.82 932.70 327.13 918.70 327.88 C 921.14 326.25 923.54 324.56 925.95 322.87 C 916.58 322.91 907.18 323.00 897.83 322.09 C 894.29 321.83 891.09 320.24 887.85 318.94 Z" />
<path fill="#ffffff" opacity="1.00" d=" M 989.26 249.91 C 999.07 256.06 1007.88 263.72 1015.97 271.98 C 1028.48 284.95 1038.99 300.41 1043.81 317.94 C 1048.10 332.98 1046.84 349.01 1043.53 364.11 C 1038.99 383.88 1028.54 403.16 1011.52 414.82 C 1029.85 394.39 1036.56 365.69 1033.80 338.82 C 1032.65 364.12 1019.35 387.44 1001.72 405.01 C 1012.94 390.51 1020.91 373.32 1023.70 355.14 C 1026.22 339.65 1024.27 323.60 1018.85 308.93 C 1011.81 289.92 999.72 272.99 984.94 259.21 C 1008.12 272.68 1025.11 295.27 1033.96 320.38 C 1026.11 293.43 1011.89 267.20 989.26 249.91 Z" />
<path fill="#ffffff" opacity="1.00" d=" M 541.33 315.88 C 544.88 302.21 550.64 289.04 558.82 277.48 C 554.68 287.46 553.45 298.30 552.38 308.96 C 550.38 328.24 551.84 347.78 548.32 366.91 C 545.32 384.30 540.19 401.60 531.10 416.85 C 534.90 396.11 538.14 375.23 539.44 354.17 C 528.78 364.52 523.62 379.18 521.28 393.56 C 519.01 407.45 519.70 421.60 521.32 435.52 C 513.38 412.96 509.64 388.85 510.83 364.95 C 512.01 341.33 519.40 317.71 533.90 298.83 C 525.86 314.25 523.84 331.91 522.67 349.01 C 522.31 354.77 522.21 360.54 522.29 366.31 C 529.62 356.80 534.20 345.47 537.29 333.94 C 538.93 327.99 539.74 321.85 541.33 315.88 Z" />
<path fill="#ffffff" opacity="1.00" d=" M 453.74 366.73 C 468.50 335.28 491.75 307.80 520.28 287.99 C 508.63 302.52 498.38 318.19 489.77 334.71 C 482.09 349.63 475.72 365.38 472.40 381.88 C 468.33 401.58 470.07 422.15 475.43 441.43 C 481.06 461.42 490.36 480.37 502.58 497.16 C 489.37 486.02 477.73 472.82 469.50 457.56 C 459.93 440.08 455.13 419.94 456.58 400.01 C 451.25 417.11 451.18 435.47 454.80 452.92 C 459.52 476.04 469.10 497.97 481.36 518.05 C 456.79 496.81 440.33 465.67 438.99 432.99 C 437.93 410.07 444.33 387.44 453.74 366.73 Z" />
<path fill="#ffffff" opacity="1.00" d=" M 1044.03 293.82 C 1061.10 312.40 1073.54 334.90 1082.44 358.41 C 1091.50 383.40 1097.22 410.23 1094.60 436.91 C 1092.78 455.72 1085.88 474.13 1074.18 489.04 C 1064.16 502.00 1050.99 512.22 1036.76 520.19 C 1048.80 508.14 1059.58 494.78 1068.36 480.17 C 1075.14 468.79 1080.73 456.58 1083.75 443.64 C 1072.86 470.42 1054.54 494.80 1029.94 510.36 C 1045.02 495.56 1057.23 477.84 1065.54 458.41 C 1076.24 433.51 1079.71 405.31 1073.96 378.72 C 1074.72 404.39 1061.11 428.58 1042.42 445.40 C 1035.19 451.97 1027.17 457.64 1018.76 462.60 C 1034.62 445.76 1047.76 426.23 1056.63 404.84 C 1064.63 385.45 1068.60 364.00 1065.45 343.11 C 1062.93 325.10 1054.88 308.28 1044.03 293.82 Z" />
<path fill="#ffffff" opacity="1.00" d=" M 685.57 427.83 C 701.03 426.82 716.58 426.82 732.04 427.99 C 742.44 428.86 753.46 429.66 762.48 435.48 C 769.36 439.74 773.81 447.10 775.66 454.86 C 779.92 472.30 776.35 491.02 767.67 506.55 C 763.05 514.66 756.51 521.78 748.44 526.53 C 740.59 531.06 731.71 533.39 722.94 535.38 C 701.22 539.79 678.42 540.37 656.79 535.13 C 645.50 532.15 633.48 527.20 627.21 516.74 C 619.27 503.72 616.21 488.12 616.55 473.01 C 617.00 462.77 619.09 451.89 625.90 443.86 C 629.72 439.27 635.58 437.36 641.04 435.49 C 655.44 430.88 670.54 428.97 685.57 427.83 Z" />
<path fill="#ffffff" opacity="1.00" d=" M 1007.73 428.72 C 1006.42 435.55 1004.81 442.32 1003.40 449.13 C 1001.95 448.34 1000.51 447.56 999.07 446.80 C 1001.98 440.79 1004.86 434.76 1007.73 428.72 Z" />
<path fill="#ffffff" opacity="1.00" d=" M 887.49 445.81 C 908.09 443.78 928.91 444.43 949.45 446.91 C 964.85 449.01 980.49 451.85 994.57 458.75 C 1002.58 462.69 1006.35 471.61 1008.08 479.90 C 1011.03 495.17 1008.94 511.18 1003.48 525.65 C 1000.26 533.61 995.95 541.72 988.54 546.52 C 977.47 553.77 964.01 556.06 951.04 557.05 C 934.63 557.98 918.06 556.19 902.22 551.79 C 892.18 548.89 881.92 545.15 874.35 537.64 C 861.62 525.30 855.88 507.31 854.85 489.97 C 855.02 478.93 856.25 467.04 863.16 457.96 C 868.89 450.40 878.34 446.90 887.49 445.81 Z" />
<path fill="#ffffff" opacity="1.00" d=" M 789.40 459.41 C 808.21 456.32 828.16 456.06 846.12 463.20 C 840.08 481.80 841.37 502.31 848.38 520.46 C 854.10 535.81 864.99 549.61 879.86 556.93 C 905.38 568.71 934.45 572.15 962.21 568.57 C 973.36 566.94 984.44 563.78 994.18 557.96 C 993.38 562.23 993.36 566.70 991.94 570.83 C 972.40 604.99 959.62 642.61 950.79 680.85 C 945.61 701.05 939.37 721.14 929.82 739.76 C 921.88 755.48 911.56 769.84 900.69 783.64 C 888.45 799.23 875.82 814.75 860.44 827.39 C 848.29 837.39 834.48 846.12 818.89 849.37 C 810.38 851.21 801.45 850.60 793.19 847.89 C 785.83 845.79 779.46 841.01 771.84 839.73 C 758.63 837.41 745.32 840.28 732.13 841.27 C 717.01 842.49 701.30 842.42 686.94 836.91 C 673.14 831.72 661.61 822.00 651.72 811.29 C 642.53 801.37 630.30 794.94 617.79 790.21 C 599.40 783.16 579.74 778.77 562.97 768.04 C 550.58 760.34 541.60 748.53 533.16 736.90 C 520.20 718.44 510.37 697.84 503.82 676.28 C 501.65 668.41 498.96 660.56 498.55 652.36 C 495.82 645.00 495.84 636.90 494.81 629.18 C 492.61 636.34 494.07 643.77 494.55 651.05 C 482.38 647.95 470.52 640.62 465.13 628.87 C 458.07 612.50 460.69 593.54 452.69 577.47 C 450.13 571.93 446.25 566.96 445.05 560.85 C 441.60 545.02 443.08 528.66 444.56 512.68 C 448.44 515.62 452.41 518.44 456.37 521.28 C 450.04 529.28 448.46 540.14 449.92 550.01 C 451.05 557.12 457.73 560.98 461.59 566.48 C 467.57 573.91 468.48 584.57 476.07 590.83 C 478.11 592.54 482.45 594.12 483.79 590.86 C 486.69 585.88 488.33 579.75 486.61 574.08 C 485.37 569.87 481.79 566.93 480.19 562.89 C 477.77 557.79 477.91 551.99 478.75 546.55 C 476.17 549.16 473.68 552.11 472.89 555.80 C 471.13 562.86 473.47 570.02 475.91 576.61 C 471.63 569.13 467.12 561.75 461.79 554.97 C 459.36 551.81 455.93 549.22 454.84 545.23 C 452.55 537.36 454.50 529.10 456.57 521.42 C 465.61 528.32 474.95 534.95 482.95 543.08 C 481.15 537.85 479.49 532.57 477.79 527.31 C 482.48 532.35 487.07 537.62 490.24 543.77 C 492.72 548.51 492.51 553.99 493.06 559.16 C 494.28 577.69 494.91 596.26 495.41 614.83 C 503.99 617.29 512.59 619.68 521.17 622.14 C 522.08 596.73 523.41 571.32 525.89 546.00 C 527.35 532.82 528.66 519.46 532.88 506.81 C 538.28 490.49 544.77 474.55 550.44 458.32 C 564.66 460.74 578.93 462.93 593.09 465.74 C 596.81 466.38 600.60 466.12 604.36 466.08 C 602.37 485.09 605.82 504.94 615.34 521.62 C 619.64 529.42 626.38 535.68 634.22 539.84 C 647.97 547.22 663.64 550.16 679.07 551.23 C 701.42 552.49 724.18 549.87 745.23 542.08 C 759.52 536.79 771.47 526.03 778.83 512.76 C 787.74 496.66 791.97 477.73 789.40 459.41 Z" />
</g>
<g id="#000000ff">
<path fill="#000000" opacity="1.00" d=" M 714.54 43.39 C 743.85 42.52 774.99 50.74 796.33 71.75 C 806.14 82.31 816.31 92.86 828.79 100.28 C 834.00 103.29 839.77 105.94 845.94 105.58 C 841.13 91.29 830.46 79.81 818.55 70.96 C 833.66 77.93 846.64 89.11 856.35 102.56 C 860.70 108.33 864.09 114.71 867.55 121.02 C 863.49 109.25 862.82 96.50 865.45 84.33 C 865.48 95.47 868.47 106.32 872.16 116.75 C 873.84 122.21 876.63 127.33 880.70 131.38 C 889.43 140.29 900.91 145.84 912.40 150.29 C 919.75 153.11 927.33 155.31 935.01 157.05 C 930.45 153.26 925.64 149.78 921.02 146.06 C 944.60 150.50 967.75 158.26 988.51 170.43 C 1000.91 178.19 1007.36 192.30 1010.96 205.97 C 1014.82 220.81 1015.59 236.29 1015.39 251.52 C 1050.93 282.86 1077.72 323.66 1093.72 368.18 C 1102.96 393.82 1108.72 420.80 1109.95 448.06 C 1110.98 466.73 1108.98 485.98 1101.11 503.13 C 1092.39 522.64 1076.41 538.84 1056.87 547.53 C 1071.64 537.50 1083.44 523.50 1092.00 507.92 C 1079.31 525.02 1058.85 533.83 1038.99 539.60 C 1053.14 532.85 1066.65 523.95 1076.48 511.55 C 1082.81 503.60 1087.61 494.19 1089.03 484.05 C 1085.16 491.00 1081.23 498.01 1075.81 503.91 C 1063.82 517.34 1048.00 527.11 1030.97 532.76 C 1023.83 555.36 1016.33 577.84 1008.35 600.15 C 998.57 630.71 980.93 658.13 960.24 682.42 C 953.16 700.98 948.56 720.43 940.96 738.81 C 932.78 759.25 922.68 778.98 910.25 797.17 C 900.48 811.09 889.48 824.73 874.87 833.82 C 861.30 842.58 848.52 852.73 833.84 859.67 C 823.33 864.70 811.66 867.40 799.98 867.16 C 779.74 867.35 760.25 860.63 740.06 860.11 C 733.04 859.61 726.02 860.24 719.01 860.50 C 701.01 860.43 683.23 855.66 667.08 847.85 C 659.46 844.13 652.11 839.76 645.56 834.35 C 641.90 831.36 638.98 827.59 635.23 824.71 C 627.75 818.57 618.40 815.60 609.44 812.36 C 585.40 803.89 562.48 791.69 543.00 775.16 C 529.29 763.47 517.43 749.06 511.03 732.06 C 503.21 711.72 499.49 690.10 496.58 668.59 C 482.36 665.36 469.76 656.39 461.44 644.49 C 454.38 634.25 449.26 622.48 447.87 610.05 C 446.81 600.55 445.99 590.95 443.22 581.75 C 440.91 572.90 436.60 564.73 434.38 555.85 C 429.71 538.05 429.33 519.25 432.39 501.14 C 415.60 482.54 405.28 459.24 397.11 435.82 C 394.23 427.08 390.68 418.36 390.28 409.06 C 389.20 392.20 395.82 375.42 406.69 362.71 C 403.52 344.94 404.25 326.43 409.05 309.02 C 412.26 299.28 419.07 291.28 425.62 283.60 C 443.95 263.29 465.12 245.79 486.74 229.11 C 478.42 229.44 470.12 229.91 461.81 230.37 C 469.02 228.30 475.67 224.73 482.23 221.18 C 501.25 210.72 518.48 197.45 536.58 185.56 C 569.56 163.71 603.88 144.01 638.07 124.14 C 653.64 115.23 668.96 105.75 685.47 98.61 C 702.45 91.09 720.38 85.32 738.91 83.39 C 749.29 82.39 759.91 82.65 770.02 85.42 C 747.12 74.15 718.66 73.41 696.15 86.05 C 709.64 75.00 725.52 65.96 743.08 63.84 C 753.65 62.33 764.49 64.05 774.33 68.11 C 763.35 57.14 748.43 51.37 733.76 47.23 C 727.45 45.49 721.02 44.23 714.54 43.39 M 772.11 101.11 C 785.65 103.87 798.15 110.96 807.98 120.60 C 804.76 121.57 801.37 121.84 798.06 121.31 C 787.28 119.86 777.03 115.98 766.99 111.97 C 754.96 107.07 742.02 104.07 728.99 104.33 C 715.79 104.52 702.77 108.16 691.06 114.17 C 674.91 122.38 661.14 134.51 648.84 147.66 C 662.82 137.45 677.68 128.22 693.85 121.87 C 704.39 117.85 715.77 114.76 727.13 116.22 C 733.08 116.84 738.33 119.86 743.88 121.84 C 757.33 126.80 771.31 130.21 785.39 132.84 C 788.17 133.46 791.29 132.83 793.73 134.61 C 775.58 132.64 757.08 133.39 739.11 136.64 C 718.70 140.45 698.34 148.65 683.68 163.79 C 706.49 149.88 733.12 140.65 760.11 142.29 C 770.69 142.76 780.70 146.48 791.08 148.16 C 812.62 151.98 834.89 152.74 856.45 148.69 C 835.78 148.79 815.10 146.13 795.21 140.48 C 802.44 141.25 809.64 142.41 816.93 142.67 C 825.94 143.02 835.30 143.18 843.81 139.76 C 838.34 128.95 829.28 120.27 818.99 114.04 C 804.90 105.59 788.44 101.62 772.11 101.11 M 710.16 171.12 C 697.14 179.93 685.40 190.66 675.43 202.79 C 678.71 199.97 681.54 196.67 684.81 193.83 C 698.78 181.06 715.36 170.60 733.87 166.00 C 749.80 161.95 767.00 162.68 782.31 168.79 C 755.07 167.57 726.51 175.38 706.36 194.40 C 698.91 201.07 693.50 209.55 686.97 217.06 C 670.23 236.71 650.97 254.46 628.84 267.88 C 652.10 257.22 674.45 243.81 693.07 226.11 C 711.38 206.65 734.95 192.87 759.60 183.01 C 744.10 191.68 730.98 204.18 720.70 218.60 C 712.05 230.78 704.86 244.09 700.03 258.25 C 710.25 240.34 722.10 222.54 739.07 210.35 C 727.11 235.21 710.72 257.78 691.94 277.92 C 700.13 272.91 706.56 265.63 712.75 258.41 C 698.37 283.00 671.97 298.47 644.69 304.61 C 664.47 298.10 681.53 284.61 693.48 267.68 C 682.89 279.19 669.58 287.82 655.67 294.77 C 679.54 278.22 698.52 254.70 709.61 227.85 C 690.32 237.36 673.04 250.72 658.40 266.43 C 646.15 278.61 631.47 289.14 614.53 293.49 C 625.73 286.27 634.59 275.92 641.33 264.52 C 629.87 279.46 613.17 289.91 595.09 294.82 C 607.82 287.78 620.31 277.85 624.93 263.50 C 622.80 266.85 620.96 270.40 618.49 273.52 C 610.28 284.36 597.95 291.91 584.58 294.40 C 591.16 285.21 594.31 273.80 593.73 262.55 C 586.28 275.77 580.26 289.79 575.39 304.16 C 569.69 321.50 565.67 339.64 566.10 357.99 C 566.03 365.37 567.59 372.66 567.43 380.04 C 567.32 401.15 562.07 421.80 555.95 441.87 C 573.41 444.52 590.80 448.99 608.58 448.37 C 612.10 439.74 618.05 431.68 626.63 427.59 C 637.18 422.62 648.66 419.98 660.10 418.02 C 682.18 414.43 704.68 413.73 726.99 414.94 C 738.81 415.82 751.00 416.30 762.04 421.04 C 773.51 425.62 782.61 435.34 786.58 447.02 C 808.23 443.36 831.29 443.28 851.84 451.89 C 856.79 444.97 863.82 439.66 871.79 436.71 C 884.59 431.79 898.55 432.48 912.01 431.86 C 940.18 432.37 969.04 434.60 995.45 445.17 C 994.66 431.10 1001.39 417.29 1012.28 408.53 C 1003.41 412.75 994.50 416.89 985.61 421.07 C 999.23 409.07 1007.98 392.38 1012.60 375.00 C 1005.00 385.54 996.02 395.04 986.36 403.70 C 990.41 398.60 994.58 393.55 997.79 387.85 C 1004.97 375.55 1009.25 360.82 1006.34 346.58 C 1002.60 355.04 997.10 362.76 989.87 368.58 C 999.83 353.18 1005.16 334.24 1001.80 315.96 C 1000.07 305.03 994.63 295.25 989.47 285.63 C 981.76 271.50 973.03 257.82 962.26 245.82 C 953.04 235.62 942.07 226.44 928.90 221.95 C 918.70 218.52 909.52 212.62 901.32 205.75 C 891.10 197.13 882.09 187.09 874.42 176.14 C 865.67 188.85 855.03 200.60 841.86 208.82 C 826.50 217.74 808.01 218.42 790.70 217.67 C 803.55 211.93 817.21 206.93 827.89 197.47 C 797.31 203.53 768.16 218.81 747.10 241.99 C 741.59 247.92 737.24 254.78 732.10 261.01 C 726.10 268.34 719.48 275.20 712.09 281.14 C 701.57 289.48 689.19 296.45 675.55 297.43 C 690.84 287.95 704.57 275.25 712.98 259.17 C 714.92 254.99 718.19 251.67 720.87 247.97 C 731.20 234.32 741.11 220.31 752.41 207.42 C 765.17 193.14 782.87 182.99 802.00 180.70 C 790.96 185.79 782.35 195.10 776.89 205.85 C 790.27 192.90 808.66 186.09 827.04 184.68 C 845.08 183.40 863.53 176.91 876.10 163.46 C 860.67 169.96 843.48 171.86 827.00 168.93 C 802.62 164.82 779.09 155.21 754.07 155.34 C 738.19 155.75 723.19 162.43 710.16 171.12 M 989.26 249.91 C 1011.89 267.20 1026.11 293.43 1033.96 320.38 C 1025.11 295.27 1008.12 272.68 984.94 259.21 C 999.72 272.99 1011.81 289.92 1018.85 308.93 C 1024.27 323.60 1026.22 339.65 1023.70 355.14 C 1020.91 373.32 1012.94 390.51 1001.72 405.01 C 1019.35 387.44 1032.65 364.12 1033.80 338.82 C 1036.56 365.69 1029.85 394.39 1011.52 414.82 C 1028.54 403.16 1038.99 383.88 1043.53 364.11 C 1046.84 349.01 1048.10 332.98 1043.81 317.94 C 1038.99 300.41 1028.48 284.95 1015.97 271.98 C 1007.88 263.72 999.07 256.06 989.26 249.91 M 541.33 315.88 C 539.74 321.85 538.93 327.99 537.29 333.94 C 534.20 345.47 529.62 356.80 522.29 366.31 C 522.21 360.54 522.31 354.77 522.67 349.01 C 523.84 331.91 525.86 314.25 533.90 298.83 C 519.40 317.71 512.01 341.33 510.83 364.95 C 509.64 388.85 513.38 412.96 521.32 435.52 C 519.70 421.60 519.01 407.45 521.28 393.56 C 523.62 379.18 528.78 364.52 539.44 354.17 C 538.14 375.23 534.90 396.11 531.10 416.85 C 540.19 401.60 545.32 384.30 548.32 366.91 C 551.84 347.78 550.38 328.24 552.38 308.96 C 553.45 298.30 554.68 287.46 558.82 277.48 C 550.64 289.04 544.88 302.21 541.33 315.88 M 453.74 366.73 C 444.33 387.44 437.93 410.07 438.99 432.99 C 440.33 465.67 456.79 496.81 481.36 518.05 C 469.10 497.97 459.52 476.04 454.80 452.92 C 451.18 435.47 451.25 417.11 456.58 400.01 C 455.13 419.94 459.93 440.08 469.50 457.56 C 477.73 472.82 489.37 486.02 502.58 497.16 C 490.36 480.37 481.06 461.42 475.43 441.43 C 470.07 422.15 468.33 401.58 472.40 381.88 C 475.72 365.38 482.09 349.63 489.77 334.71 C 498.38 318.19 508.63 302.52 520.28 287.99 C 491.75 307.80 468.50 335.28 453.74 366.73 M 1044.03 293.82 C 1054.88 308.28 1062.93 325.10 1065.45 343.11 C 1068.60 364.00 1064.63 385.45 1056.63 404.84 C 1047.76 426.23 1034.62 445.76 1018.76 462.60 C 1027.17 457.64 1035.19 451.97 1042.42 445.40 C 1061.11 428.58 1074.72 404.39 1073.96 378.72 C 1079.71 405.31 1076.24 433.51 1065.54 458.41 C 1057.23 477.84 1045.02 495.56 1029.94 510.36 C 1054.54 494.80 1072.86 470.42 1083.75 443.64 C 1080.73 456.58 1075.14 468.79 1068.36 480.17 C 1059.58 494.78 1048.80 508.14 1036.76 520.19 C 1050.99 512.22 1064.16 502.00 1074.18 489.04 C 1085.88 474.13 1092.78 455.72 1094.60 436.91 C 1097.22 410.23 1091.50 383.40 1082.44 358.41 C 1073.54 334.90 1061.10 312.40 1044.03 293.82 M 685.57 427.83 C 670.54 428.97 655.44 430.88 641.04 435.49 C 635.58 437.36 629.72 439.27 625.90 443.86 C 619.09 451.89 617.00 462.77 616.55 473.01 C 616.21 488.12 619.27 503.72 627.21 516.74 C 633.48 527.20 645.50 532.15 656.79 535.13 C 678.42 540.37 701.22 539.79 722.94 535.38 C 731.71 533.39 740.59 531.06 748.44 526.53 C 756.51 521.78 763.05 514.66 767.67 506.55 C 776.35 491.02 779.92 472.30 775.66 454.86 C 773.81 447.10 769.36 439.74 762.48 435.48 C 753.46 429.66 742.44 428.86 732.04 427.99 C 716.58 426.82 701.03 426.82 685.57 427.83 M 1007.73 428.72 C 1004.86 434.76 1001.98 440.79 999.07 446.80 C 1000.51 447.56 1001.95 448.34 1003.40 449.13 C 1004.81 442.32 1006.42 435.55 1007.73 428.72 M 887.49 445.81 C 878.34 446.90 868.89 450.40 863.16 457.96 C 856.25 467.04 855.02 478.93 854.85 489.97 C 855.88 507.31 861.62 525.30 874.35 537.64 C 881.92 545.15 892.18 548.89 902.22 551.79 C 918.06 556.19 934.63 557.98 951.04 557.05 C 964.01 556.06 977.47 553.77 988.54 546.52 C 995.95 541.72 1000.26 533.61 1003.48 525.65 C 1008.94 511.18 1011.03 495.17 1008.08 479.90 C 1006.35 471.61 1002.58 462.69 994.57 458.75 C 980.49 451.85 964.85 449.01 949.45 446.91 C 928.91 444.43 908.09 443.78 887.49 445.81 M 789.40 459.41 C 791.97 477.73 787.74 496.66 778.83 512.76 C 771.47 526.03 759.52 536.79 745.23 542.08 C 724.18 549.87 701.42 552.49 679.07 551.23 C 663.64 550.16 647.97 547.22 634.22 539.84 C 626.38 535.68 619.64 529.42 615.34 521.62 C 605.82 504.94 602.37 485.09 604.36 466.08 C 600.60 466.12 596.81 466.38 593.09 465.74 C 578.93 462.93 564.66 460.74 550.44 458.32 C 544.77 474.55 538.28 490.49 532.88 506.81 C 528.66 519.46 527.35 532.82 525.89 546.00 C 523.41 571.32 522.08 596.73 521.17 622.14 C 512.59 619.68 503.99 617.29 495.41 614.83 C 494.91 596.26 494.28 577.69 493.06 559.16 C 492.51 553.99 492.72 548.51 490.24 543.77 C 487.07 537.62 482.48 532.35 477.79 527.31 C 479.49 532.57 481.15 537.85 482.95 543.08 C 474.95 534.95 465.61 528.32 456.57 521.42 C 454.50 529.10 452.55 537.36 454.84 545.23 C 455.93 549.22 459.36 551.81 461.79 554.97 C 467.12 561.75 471.63 569.13 475.91 576.61 C 473.47 570.02 471.13 562.86 472.89 555.80 C 473.68 552.11 476.17 549.16 478.75 546.55 C 477.91 551.99 477.77 557.79 480.19 562.89 C 481.79 566.93 485.37 569.87 486.61 574.08 C 488.33 579.75 486.69 585.88 483.79 590.86 C 482.45 594.12 478.11 592.54 476.07 590.83 C 468.48 584.57 467.57 573.91 461.59 566.48 C 457.73 560.98 451.05 557.12 449.92 550.01 C 448.46 540.14 450.04 529.28 456.37 521.28 C 452.41 518.44 448.44 515.62 444.56 512.68 C 443.08 528.66 441.60 545.02 445.05 560.85 C 446.25 566.96 450.13 571.93 452.69 577.47 C 460.69 593.54 458.07 612.50 465.13 628.87 C 470.52 640.62 482.38 647.95 494.55 651.05 C 494.07 643.77 492.61 636.34 494.81 629.18 C 495.84 636.90 495.82 645.00 498.55 652.36 C 498.96 660.56 501.65 668.41 503.82 676.28 C 510.37 697.84 520.20 718.44 533.16 736.90 C 541.60 748.53 550.58 760.34 562.97 768.04 C 579.74 778.77 599.40 783.16 617.79 790.21 C 630.30 794.94 642.53 801.37 651.72 811.29 C 661.61 822.00 673.14 831.72 686.94 836.91 C 701.30 842.42 717.01 842.49 732.13 841.27 C 745.32 840.28 758.63 837.41 771.84 839.73 C 779.46 841.01 785.83 845.79 793.19 847.89 C 801.45 850.60 810.38 851.21 818.89 849.37 C 834.48 846.12 848.29 837.39 860.44 827.39 C 875.82 814.75 888.45 799.23 900.69 783.64 C 911.56 769.84 921.88 755.48 929.82 739.76 C 939.37 721.14 945.61 701.05 950.79 680.85 C 959.62 642.61 972.40 604.99 991.94 570.83 C 993.36 566.70 993.38 562.23 994.18 557.96 C 984.44 563.78 973.36 566.94 962.21 568.57 C 934.45 572.15 905.38 568.71 879.86 556.93 C 864.99 549.61 854.10 535.81 848.38 520.46 C 841.37 502.31 840.08 481.80 846.12 463.20 C 828.16 456.06 808.21 456.32 789.40 459.41 Z" />
<path fill="#000000" opacity="1.00" d=" M 677.97 311.12 C 688.80 310.59 699.50 308.64 710.12 306.57 C 707.59 308.40 705.04 310.19 702.49 311.97 C 713.89 310.59 725.51 309.92 736.91 311.69 C 744.78 312.76 751.33 317.80 757.00 323.05 C 762.65 328.51 767.82 334.52 772.06 341.15 C 770.80 341.75 769.53 342.33 768.26 342.87 C 764.27 337.89 759.85 333.21 754.65 329.47 C 758.20 333.44 761.42 337.68 764.40 342.08 C 760.55 338.32 755.57 336.04 750.27 335.24 C 753.03 337.21 755.90 339.03 758.76 340.87 C 753.70 340.73 748.44 341.49 743.60 339.66 C 741.09 338.96 738.82 337.47 736.25 337.13 C 735.92 337.28 735.26 337.59 734.94 337.75 L 734.34 337.55 L 733.88 337.23 C 720.07 333.07 705.41 332.89 691.12 333.62 C 693.26 335.02 695.42 336.40 697.57 337.80 C 680.14 337.70 662.57 340.35 646.17 346.32 C 634.07 351.05 623.08 358.51 614.08 367.87 C 617.84 359.30 623.97 352.09 630.85 345.86 C 622.51 352.13 615.94 360.41 610.34 369.14 C 613.21 358.72 616.41 348.37 620.65 338.43 C 623.08 332.95 625.74 327.30 630.41 323.35 C 637.30 317.46 645.99 314.25 654.63 311.93 C 653.34 313.57 652.02 315.17 650.72 316.79 C 659.54 313.91 668.63 311.41 677.97 311.12 Z" />
<path fill="#000000" opacity="1.00" d=" M 887.85 318.94 C 891.09 320.24 894.29 321.83 897.83 322.09 C 907.18 323.00 916.58 322.91 925.95 322.87 C 923.54 324.56 921.14 326.25 918.70 327.88 C 932.70 327.13 947.54 327.82 960.15 334.60 C 967.51 338.39 972.26 345.60 975.14 353.15 C 981.88 370.61 984.16 389.45 985.30 408.01 C 983.28 399.54 981.31 391.06 979.40 382.56 C 979.26 387.42 979.30 392.29 979.38 397.15 C 974.86 384.70 965.06 374.26 952.79 369.21 C 940.87 364.38 929.94 356.77 922.07 346.52 C 922.77 348.54 923.44 350.54 924.16 352.56 C 916.61 349.38 909.49 344.48 901.07 344.04 C 889.38 342.69 878.07 346.64 866.52 347.37 C 870.68 341.89 876.10 337.60 881.67 333.63 C 873.04 336.29 865.46 341.64 859.72 348.56 C 862.73 340.68 866.51 332.48 873.52 327.36 C 880.10 322.72 888.83 322.99 896.17 325.53 C 893.38 323.36 890.59 321.18 887.85 318.94 Z" />
</g>
</svg>
