<svg width="20" height="20" viewBox="0 0 20 20" fill="none" xmlns="http://www.w3.org/2000/svg"><path d="M17.5 5.8335H18.25C18.25 5.41928 17.9142 5.0835 17.5 5.0835V5.8335ZM11.0227 12.4307L10.4876 12.9562C10.6286 13.0998 10.8214 13.1807 11.0227 13.1807C11.224 13.1807 11.4169 13.0998 11.5579 12.9562L11.0227 12.4307ZM7.61364 8.9585L8.14881 8.43305C8.00778 8.28941 7.81493 8.2085 7.61364 8.2085C7.41234 8.2085 7.21949 8.28941 7.07846 8.43305L7.61364 8.9585ZM1.96483 13.6414C1.67463 13.937 1.67899 14.4118 1.97456 14.702C2.27013 14.9922 2.74498 14.9878 3.03517 14.6923L1.96483 13.6414ZM13.4091 5.0835C12.9949 5.0835 12.6591 5.41928 12.6591 5.8335C12.6591 6.24771 12.9949 6.5835 13.4091 6.5835V5.0835ZM16.75 10.0002C16.75 10.4144 17.0858 10.7502 17.5 10.7502C17.9142 10.7502 18.25 10.4144 18.25 10.0002H16.75ZM16.9648 5.30805L10.4876 11.9053L11.5579 12.9562L18.0352 6.35894L16.9648 5.30805ZM11.5579 11.9053L8.14881 8.43305L7.07846 9.48394L10.4876 12.9562L11.5579 11.9053ZM7.07846 8.43305L1.96483 13.6414L3.03517 14.6923L8.14881 9.48394L7.07846 8.43305ZM13.4091 6.5835H17.5V5.0835H13.4091V6.5835ZM16.75 5.8335V10.0002H18.25V5.8335H16.75Z" fill="var(--rgw6ez1g)"></path></svg>